<svg version="1.2" xmlns="http://www.w3.org/2000/svg" viewBox="0 0 512 512" width="512" height="512">
	
	<style>
		.s0 { fill: #5865f2 } 
	</style>
	<path class="s0" d="m328.3 62c-5 8.9-9.5 18.1-13.5 27.4-38.8-5.8-78.3-5.8-117.1 0-4-9.3-8.6-18.5-13.6-27.4-36.4 6.2-71.9 17.1-105.5 32.5-66.7 98.8-84.8 195.1-75.8 290.1 39.1 28.8 82.8 50.8 129.4 64.9 10.5-14.1 19.8-29 27.8-44.6-15.1-5.7-29.7-12.7-43.7-20.9 3.7-2.6 7.2-5.4 10.7-8 81.9 38.5 176.7 38.5 258.7 0 3.5 2.8 7.1 5.6 10.7 8-13.9 8.3-28.5 15.2-43.7 21 7.9 15.6 17.2 30.5 27.7 44.6 46.6-14.1 90.4-36 129.4-64.8 10.6-110.2-18.1-205.6-75.9-290.2-33.6-15.4-69.1-26.3-105.5-32.4zm-156.9 264.1c-25.2 0-46.1-22.8-46.1-51.1 0-28.2 20.1-51.2 46-51.2 25.9 0 46.5 23.1 46.1 51.2-0.4 28.2-20.3 51.1-46 51.1zm169.9 0c-25.3 0-46-22.8-46-51.1 0-28.2 20.1-51.2 46-51.2 25.9 0 46.4 23.1 46 51.2-0.4 28.2-20.3 51.1-46 51.1z"/>
</svg>