<svg version="1.2" xmlns="http://www.w3.org/2000/svg" viewBox="0 0 512 512" width="512" height="512">
	
	<style>
		.s0 { fill: #ffffff } 
		.s1 { fill: #478cbf } 
		.s2 { fill: #414042 } 
	</style>
	<path class="s0" d="m480.7 344c0 0-0.8-4.6-1.2-4.6l-83.1 8.1c-6.6 0.6-11.7 5.9-12.2 12.5l-2.3 32.7-64.3 4.6-4.3-29.7c-1-6.5-6.8-11.5-13.4-11.5h-87.8c-6.6 0-12.4 5-13.4 11.5l-4.3 29.7-64.3-4.6-2.3-32.7c-0.5-6.6-5.6-11.9-12.2-12.5l-83.1-8.1c-0.5 0-0.8 4.6-1.2 4.6l-0.1 18 70.4 11.3 2.3 33c0.5 6.7 5.8 12.1 12.5 12.6l88.6 6.3q0.5 0.1 1 0.1c6.6 0 12.4-5 13.3-11.6l4.5-30.5h64.4l4.5 30.5c0.9 6.6 6.7 11.6 13.4 11.6q0.4 0 0.9-0.1l88.6-6.3c6.7-0.5 12-5.9 12.5-12.6l2.3-33 70.4-11.4z"/>
	<path class="s1" d="m31.3 208.4v109.1 13.9 12.6q0.4 0 0.7 0l83.2 8c4.3 0.5 7.7 4 8 8.3l2.6 36.7 72.5 5.2 5-33.9c0.6-4.4 4.4-7.6 8.8-7.6h87.8c4.4 0 8.2 3.2 8.8 7.6l5 33.9 72.5-5.2 2.6-36.7c0.3-4.3 3.7-7.8 8-8.3l83.1-8q0.4 0 0.8 0v-10.8-0.1-124.7c11.7-14.7 22.8-31 31.3-44.7-13-22.1-28.9-41.8-45.9-60.1-15.7 7.9-31.1 16.9-45.5 26.5-7.3-7.2-15.4-13.1-23.4-19.2-7.9-6.4-16.7-11-25.1-16.4 2.5-18.6 3.7-37 4.2-56.1-21.7-11-44.8-18.2-68.2-23.4-9.4 15.7-17.9 32.7-25.4 49.3-8.8-1.4-17.7-2-26.5-2.1q-0.1 0-0.2 0-0.1 0-0.2 0c-8.9 0.1-17.7 0.7-26.5 2.1-7.5-16.6-16-33.6-25.4-49.3-23.4 5.2-46.5 12.4-68.2 23.4 0.5 19.1 1.7 37.5 4.3 56.1-8.5 5.4-17.3 10-25.2 16.4-8 6.1-16.2 12-23.4 19.2-14.5-9.6-29.8-18.6-45.5-26.5-17 18.3-32.9 38-45.9 60.1 10.2 16 21.1 32.1 31.3 44.7z"/>
	<path class="s1" d="m406.1 369.1l-2.6 36.9c-0.3 4.5-3.8 8-8.3 8.3l-88.5 6.3q-0.3 0.1-0.7 0.1c-4.4 0-8.1-3.3-8.8-7.7l-5.1-34.4h-72.2l-5.1 34.4c-0.7 4.6-4.8 8-9.5 7.6l-88.5-6.3c-4.5-0.3-8-3.8-8.3-8.3l-2.6-36.9-74.8-7.2c0.1 8.1 0.2 16.9 0.2 18.6 0 78.9 100.1 116.9 224.5 117.3h0.2 0.2c124.4-0.4 224.5-38.4 224.5-117.3 0-1.8 0.1-10.5 0.1-18.6z"/>
	<path fill-rule="evenodd" class="s0" d="m138.2 313.5c-27.7 0-50.1-22.4-50.1-50.1 0-27.7 22.4-50 50.1-50 27.7 0 50.1 22.3 50.1 50 0 27.7-22.4 50.1-50.1 50.1z"/>
	<path fill-rule="evenodd" class="s2" d="m142.9 299.6c-18.3 0-33.2-14.8-33.2-33.2 0-18.4 14.9-33.3 33.2-33.3 18.4 0 33.3 14.9 33.3 33.3 0 18.4-14.9 33.2-33.3 33.2z"/>
	<path class="s0" d="m256 318.1c-8.9 0-16.1-6.6-16.1-14.7v-46.1c0-8.1 7.2-14.6 16.1-14.6 8.9 0 16.1 6.5 16.1 14.6v46.1c0 8.1-7.2 14.7-16.1 14.7z"/>
	<path fill-rule="evenodd" class="s0" d="m373.8 313.5c-27.7 0-50.1-22.4-50.1-50.1 0-27.7 22.4-50 50.1-50 27.7 0 50.1 22.3 50.1 50 0 27.7-22.4 50.1-50.1 50.1z"/>
	<path fill-rule="evenodd" class="s2" d="m369 299.6c-18.3 0-33.2-14.8-33.2-33.2 0-18.4 14.9-33.3 33.2-33.3 18.4 0 33.3 14.9 33.3 33.3 0 18.4-14.9 33.2-33.3 33.2z"/>
</svg>