<svg version="1.2" xmlns="http://www.w3.org/2000/svg" viewBox="0 0 512 512" width="512" height="512">
	
	<style>
		.s0 { fill: #fa5c5c } 
	</style>
	<path class="s0" d="m66.8 28.9c-22.4 13.3-66.4 63.8-66.8 77.1v21.9c0 27.8 26 52.3 49.6 52.3 28.4 0 52-23.5 52-51.4 0 27.9 22.8 51.4 51.1 51.4 28.4 0 50.4-23.5 50.4-51.4 0 27.9 24.3 51.4 52.6 51.4h0.6c28.3 0 52.6-23.5 52.6-51.4 0 27.9 22 51.4 50.4 51.4 28.3 0 51.1-23.5 51.1-51.4 0 27.9 23.7 51.4 52 51.4 23.6 0 49.6-24.5 49.6-52.3v-21.9c-0.4-13.3-44.4-63.8-66.7-77.1-69.5-2.4-117.6-2.8-189.3-2.8-71.7 0-169.5 1.1-189.2 2.8zm136 138.2q-1 1.8-2.2 3.4-1.1 1.7-2.4 3.4-1.2 1.6-2.6 3.1-1.3 1.5-2.8 2.9c-10.7 10.5-25.4 17-41.5 17q-5.8 0-11.5-1.1-5.6-1.1-11-3.3-5.4-2.2-10.2-5.4-4.8-3.1-8.9-7.2c-3.9-3.8-6.9-7.8-9.6-12.6-2.7 4.8-6.4 8.8-10.3 12.6q-4.2 4.1-9 7.2-4.8 3.2-10.2 5.4-5.3 2.2-11 3.3-5.7 1.1-11.4 1.1c-2 0-4-0.6-5.7-1.1-2.2 23.7-3.2 46.4-3.5 62.9v0.1c-0.1 8.4-0.1 15.3-0.2 24.9 0.5 49.8-4.9 161.4 22 188.8 41.6 9.7 118.3 14.1 195.2 14.2 76.9-0.1 153.6-4.5 195.2-14.2 26.9-27.4 21.5-139 22-188.8-0.1-9.6-0.1-16.5-0.2-24.9v-0.1c-0.3-16.5-1.3-39.2-3.5-62.9-1.7 0.5-3.7 1.1-5.7 1.1q-5.7 0-11.4-1.1-5.7-1.1-11-3.3-5.4-2.2-10.2-5.4-4.8-3.1-9-7.2c-3.9-3.8-7.6-7.8-10.3-12.6-2.7 4.8-5.7 8.8-9.6 12.6q-4.1 4.1-8.9 7.2-4.8 3.2-10.2 5.4-5.4 2.2-11 3.3-5.7 1.1-11.5 1.1c-16.1 0-30.8-6.5-41.5-17q-1.5-1.4-2.8-2.9-1.4-1.5-2.6-3.2-1.3-1.6-2.4-3.3-1.2-1.7-2.2-3.4-1 1.7-2.1 3.4-1.1 1.7-2.4 3.3-1.2 1.7-2.6 3.2-1.3 1.5-2.8 2.9-4.1 4.1-8.9 7.2-4.9 3.2-10.2 5.4-5.4 2.2-11 3.3-5.7 1.1-11.5 1.1-0.8 0-1.7-0.1-0.8 0.1-1.7 0.1-5.8 0-11.4-1.1-5.7-1.1-11.1-3.3-5.3-2.2-10.2-5.4-4.8-3.1-8.9-7.2-1.5-1.4-2.8-2.9-1.4-1.5-2.6-3.2-1.3-1.6-2.4-3.3-1.1-1.7-2.1-3.4zm-42.8 55.3h0.1c16.9 0 31.9 0 50.6 20.3 14.6-1.5 30-2.3 45.3-2.3 15.3 0 30.7 0.8 45.3 2.3 18.7-20.3 33.7-20.3 50.6-20.3h0.1c8 0 40 0 62.2 62.6l24 85.9c17.7 63.9-5.7 65.4-34.9 65.5-43.3-1.6-67.3-33.1-67.3-64.6-24 4-52 5.9-80 5.9-28 0-56-1.9-80-5.9 0 31.5-24 63-67.3 64.6-29.2-0.1-52.6-1.6-34.9-65.5l24-85.9c22.3-62.6 54.2-62.6 62.2-62.6zm96 49.2c0 0-45.6 41.9-53.8 56.8l29.8-1.2v26c0 1.2 12 0.7 24 0.2 12 0.5 24 1 24-0.2v-26l29.8 1.2c-8.2-14.9-53.8-56.8-53.8-56.8q0 0 0 0z"/>
</svg>