<svg version="1.2" xmlns="http://www.w3.org/2000/svg" viewBox="0 0 512 512" width="512" height="512">
	
	<style>
    path {
    fill: black;
    }
    @media (prefers-color-scheme: dark) {
    path {
    fill: white;
    }
    }
  </style>
	<g>
		<g>
			<path class="s0" d="m275.5 91.6l81 46.8c3 1.6 3 6.2 0 7.8l-96.3 55.6c-2.9 1.7-6.3 1.6-9.1 0l-96.3-55.6c-2.9-1.6-3.1-6.3 0-7.8l81-46.8v-91.6l-206.8 119.4v238.8-1.1 1.1l79.4-45.8v-93.6c-0.1-3.3 3.9-5.7 6.8-3.9l96.3 55.6c3 1.7 4.6 4.8 4.6 7.9v111.2c0.1 3.4-3.8 5.7-6.8 3.9l-81-46.8-79.5 45.9 206.8 119.4 206.8-119.4-79.3-45.8-81 46.8c-2.9 1.7-6.9-0.5-6.8-3.9v-111.2c0-3.4 1.9-6.4 4.6-7.9l96.2-55.6c2.9-1.8 6.9 0.5 6.9 3.9v93.6l79.3 45.8v-238.9l-206.8-119.4z"/>
		</g>
	</g>
</svg>